<svg width="239" height="68" viewBox="0 0 239 68" fill="none" xmlns="http://www.w3.org/2000/svg">
<path d="M2.496 11.488C2.496 10.752 2.8 10.384 3.408 10.384H12.528C13.104 10.384 13.392 10.72 13.392 11.392V37.456C13.392 37.904 13.584 38.128 13.968 38.128H28.416C29.152 38.128 29.52 38.432 29.52 39.04V44.944C29.52 45.232 29.424 45.488 29.232 45.712C29.04 45.904 28.736 46 28.32 46H3.792C3.28 46 2.928 45.904 2.736 45.712C2.576 45.52 2.496 45.216 2.496 44.8V11.488ZM40.7554 35.824C40.7554 36.784 40.9634 37.584 41.3794 38.224C41.8274 38.864 42.4194 39.344 43.1554 39.664C43.9234 39.984 44.7714 40.144 45.6994 40.144C46.5314 40.144 47.3474 39.952 48.1474 39.568C48.9474 39.184 49.8754 38.48 50.9314 37.456C51.0594 37.328 51.1714 37.264 51.2674 37.264C51.3954 37.232 51.6194 37.28 51.9394 37.408L56.3074 39.184C56.8834 39.408 56.9474 39.792 56.4994 40.336C55.3474 41.936 54.1794 43.184 52.9954 44.08C51.8434 44.976 50.5634 45.6 49.1554 45.952C47.7794 46.304 46.1954 46.48 44.4034 46.48C41.8434 46.48 39.5394 45.936 37.4914 44.848C35.4434 43.76 33.8274 42.256 32.6434 40.336C31.4594 38.416 30.8674 36.208 30.8674 33.712C30.8674 30.992 31.4754 28.608 32.6914 26.56C33.9394 24.512 35.5714 22.928 37.5874 21.808C39.6354 20.656 41.8434 20.08 44.2114 20.08C46.7394 20.08 48.9794 20.624 50.9314 21.712C52.8834 22.8 54.4194 24.368 55.5394 26.416C56.6914 28.432 57.2674 30.896 57.2674 33.808C57.2674 34.224 57.2194 34.528 57.1234 34.72C57.0594 34.88 56.8194 34.976 56.4034 35.008H41.4754C41.2514 35.008 41.0754 35.072 40.9474 35.2C40.8194 35.328 40.7554 35.536 40.7554 35.824ZM47.1394 30.064C47.4594 30.064 47.6674 30.032 47.7634 29.968C47.8914 29.872 47.9554 29.68 47.9554 29.392C47.9554 28.976 47.8434 28.48 47.6194 27.904C47.3954 27.328 47.0434 26.816 46.5634 26.368C46.0834 25.92 45.4434 25.696 44.6434 25.696C44.0034 25.696 43.3794 25.856 42.7714 26.176C42.1954 26.464 41.7314 26.928 41.3794 27.568C41.0594 28.208 40.8994 29.024 40.8994 30.016L47.1394 30.064ZM87.6919 19.024C87.9479 19.024 88.1719 19.12 88.3639 19.312C88.5559 19.472 88.6519 19.776 88.6519 20.224V24.544C88.6519 25.088 88.5239 25.472 88.2679 25.696C88.0439 25.888 87.7559 25.92 87.4039 25.792C87.0839 25.696 86.7159 25.616 86.2999 25.552C85.9159 25.488 85.5799 25.456 85.2919 25.456C84.4279 25.456 84.1079 25.824 84.3319 26.56C84.3959 26.784 84.4439 27.024 84.4759 27.28C84.5399 27.536 84.5719 27.792 84.5719 28.048C84.5719 29.488 84.1079 30.816 83.1799 32.032C82.2519 33.216 80.8599 34.176 79.0039 34.912C77.1799 35.616 74.9239 35.968 72.2359 35.968C71.1799 35.968 70.3159 36.032 69.6439 36.16C69.0039 36.256 68.5239 36.4 68.2039 36.592C67.9159 36.784 67.7719 37.008 67.7719 37.264C67.7719 37.616 67.9479 37.856 68.2999 37.984C68.6519 38.112 69.1799 38.208 69.8839 38.272L77.1799 38.704C80.7319 38.928 83.3239 39.68 84.9559 40.96C86.6199 42.24 87.4519 43.872 87.4519 45.856C87.4519 48.288 86.2359 50.32 83.8039 51.952C81.3719 53.584 77.7399 54.4 72.9079 54.4C67.8839 54.4 64.1399 53.92 61.6759 52.96C59.2119 52.032 57.9799 50.56 57.9799 48.544C57.9799 47.456 58.4279 46.624 59.3239 46.048C60.2519 45.472 61.3559 45.008 62.6359 44.656C63.0839 44.528 63.0839 44.352 62.6359 44.128C61.8039 43.712 61.0679 43.2 60.4279 42.592C59.7879 41.952 59.4679 41.136 59.4679 40.144C59.4679 39.376 59.7239 38.704 60.2359 38.128C60.7479 37.52 61.4039 36.976 62.2039 36.496C63.0039 35.984 63.8359 35.552 64.6999 35.2C64.8599 35.136 64.9879 35.056 65.0839 34.96C65.1799 34.864 65.0999 34.752 64.8439 34.624C63.2759 33.952 62.0439 33.072 61.1479 31.984C60.2839 30.864 59.8519 29.568 59.8519 28.096C59.8519 25.792 60.9399 23.904 63.1159 22.432C65.2919 20.928 68.5239 20.176 72.8119 20.176C74.6359 20.176 76.2199 20.384 77.5639 20.8C78.9399 21.184 80.0279 21.696 80.8279 22.336C81.0839 22.528 81.3559 22.608 81.6439 22.576C81.9319 22.544 82.1559 22.416 82.3159 22.192C82.7639 21.584 83.3079 21.04 83.9479 20.56C84.6199 20.08 85.2919 19.712 85.9639 19.456C86.6679 19.168 87.2439 19.024 87.6919 19.024ZM72.1399 31.6C73.4839 31.6 74.4439 31.248 75.0199 30.544C75.5959 29.84 75.8839 29.072 75.8839 28.24C75.8839 27.248 75.5959 26.4 75.0199 25.696C74.4439 24.992 73.4839 24.64 72.1399 24.64C70.9559 24.64 70.0279 24.992 69.3559 25.696C68.7159 26.4 68.3959 27.248 68.3959 28.24C68.3959 29.104 68.7159 29.888 69.3559 30.592C70.0279 31.264 70.9559 31.6 72.1399 31.6ZM69.0199 45.616C68.3479 45.584 67.7559 45.648 67.2439 45.808C66.7639 45.936 66.3799 46.128 66.0919 46.384C65.8359 46.64 65.7079 46.944 65.7079 47.296C65.7079 47.872 65.9319 48.368 66.3799 48.784C66.8279 49.232 67.5959 49.568 68.6839 49.792C69.8039 50.016 71.3719 50.128 73.3879 50.128C75.2759 50.128 76.6999 49.888 77.6599 49.408C78.6519 48.96 79.1479 48.384 79.1479 47.68C79.1479 47.232 78.8759 46.832 78.3319 46.48C77.7879 46.128 77.0039 45.936 75.9799 45.904L69.0199 45.616ZM103.618 43.984C102.754 44.688 101.746 45.28 100.594 45.76C99.4738 46.24 98.1618 46.48 96.6578 46.48C94.2578 46.48 92.3698 45.808 90.9938 44.464C89.6498 43.12 88.9778 41.456 88.9778 39.472C88.9778 37.584 89.5698 35.936 90.7538 34.528C91.9698 33.12 93.6818 32.032 95.8898 31.264C98.0978 30.464 100.706 30.064 103.714 30.064H104.05C104.178 30.064 104.322 30.032 104.482 29.968C104.674 29.872 104.77 29.68 104.77 29.392V28.576C104.77 27.68 104.53 26.992 104.05 26.512C103.602 26.032 102.898 25.792 101.938 25.792C101.266 25.792 100.578 25.952 99.8738 26.272C99.1698 26.56 98.6098 27.152 98.1938 28.048C98.0658 28.304 97.9218 28.48 97.7618 28.576C97.6338 28.64 97.3458 28.64 96.8978 28.576L90.6098 27.328C90.3858 27.264 90.2098 27.152 90.0818 26.992C89.9858 26.8 90.0498 26.4 90.2738 25.792C91.0098 23.744 92.4178 22.288 94.4978 21.424C96.6098 20.528 99.2338 20.08 102.37 20.08C105.346 20.08 107.666 20.416 109.33 21.088C110.994 21.76 112.162 22.688 112.834 23.872C113.538 25.056 113.89 26.432 113.89 28V44.704C113.89 45.184 113.81 45.52 113.65 45.712C113.522 45.904 113.234 46 112.786 46H106.21C105.794 46 105.49 45.84 105.298 45.52C105.138 45.168 105.026 44.768 104.962 44.32L104.914 43.984C104.818 43.344 104.386 43.344 103.618 43.984ZM104.77 35.248C104.77 34.672 104.53 34.384 104.05 34.384H103.858C103.474 34.384 102.962 34.464 102.322 34.624C101.714 34.752 101.106 34.976 100.498 35.296C99.8898 35.584 99.3618 35.968 98.9138 36.448C98.4978 36.928 98.2898 37.504 98.2898 38.176C98.2898 38.848 98.5298 39.392 99.0098 39.808C99.4898 40.224 100.162 40.432 101.026 40.432C101.666 40.432 102.194 40.336 102.61 40.144C103.058 39.952 103.41 39.744 103.666 39.52C103.954 39.264 104.21 39.008 104.434 38.752C104.658 38.464 104.77 38.144 104.77 37.792V35.248ZM127.725 44.608C127.725 45.12 127.597 45.488 127.341 45.712C127.085 45.904 126.685 46 126.141 46H119.325C118.461 46 118.029 45.6 118.029 44.8L118.269 11.488C118.269 10.752 118.573 10.384 119.181 10.384H126.861C127.437 10.384 127.725 10.72 127.725 11.392V44.608Z" fill="#87C040"/>
<path d="M127.496 21.488C127.496 20.752 127.8 20.384 128.408 20.384H154.328C154.904 20.384 155.192 20.72 155.192 21.392L155.144 26.96C155.144 27.824 154.728 28.256 153.896 28.256H139.496C138.76 28.256 138.392 28.56 138.392 29.168V33.248C138.392 33.92 138.68 34.256 139.256 34.256H147.896C148.568 34.256 148.904 34.576 148.904 35.216V41.168C148.904 41.392 148.84 41.584 148.712 41.744C148.584 41.904 148.36 41.984 148.04 41.984H139.16C138.648 41.984 138.392 42.208 138.392 42.656V47.456C138.392 47.904 138.584 48.128 138.968 48.128H154.568C155.272 48.128 155.624 48.432 155.624 49.04V54.944C155.624 55.232 155.528 55.488 155.336 55.712C155.176 55.904 154.888 56 154.472 56H128.792C127.928 56 127.496 55.6 127.496 54.8V21.488ZM172.227 53.984C171.363 54.688 170.355 55.28 169.203 55.76C168.083 56.24 166.771 56.48 165.267 56.48C162.867 56.48 160.979 55.808 159.603 54.464C158.259 53.12 157.587 51.456 157.587 49.472C157.587 47.584 158.179 45.936 159.363 44.528C160.579 43.12 162.291 42.032 164.499 41.264C166.707 40.464 169.315 40.064 172.323 40.064H172.659C172.787 40.064 172.931 40.032 173.091 39.968C173.283 39.872 173.379 39.68 173.379 39.392V38.576C173.379 37.68 173.139 36.992 172.659 36.512C172.211 36.032 171.507 35.792 170.547 35.792C169.875 35.792 169.187 35.952 168.483 36.272C167.779 36.56 167.219 37.152 166.803 38.048C166.675 38.304 166.531 38.48 166.371 38.576C166.243 38.64 165.955 38.64 165.507 38.576L159.219 37.328C158.995 37.264 158.819 37.152 158.691 36.992C158.595 36.8 158.659 36.4 158.883 35.792C159.619 33.744 161.027 32.288 163.107 31.424C165.219 30.528 167.843 30.08 170.979 30.08C173.955 30.08 176.275 30.416 177.939 31.088C179.603 31.76 180.771 32.688 181.443 33.872C182.147 35.056 182.499 36.432 182.499 38V54.704C182.499 55.184 182.419 55.52 182.259 55.712C182.131 55.904 181.843 56 181.395 56H174.819C174.403 56 174.099 55.84 173.907 55.52C173.747 55.168 173.635 54.768 173.571 54.32L173.523 53.984C173.427 53.344 172.995 53.344 172.227 53.984ZM173.379 45.248C173.379 44.672 173.139 44.384 172.659 44.384H172.467C172.083 44.384 171.571 44.464 170.931 44.624C170.323 44.752 169.715 44.976 169.107 45.296C168.499 45.584 167.971 45.968 167.523 46.448C167.107 46.928 166.899 47.504 166.899 48.176C166.899 48.848 167.139 49.392 167.619 49.808C168.099 50.224 168.771 50.432 169.635 50.432C170.275 50.432 170.803 50.336 171.219 50.144C171.667 49.952 172.019 49.744 172.275 49.52C172.563 49.264 172.819 49.008 173.043 48.752C173.267 48.464 173.379 48.144 173.379 47.792V45.248ZM202.623 37.856C202.143 37.312 201.519 36.816 200.751 36.368C199.983 35.888 199.007 35.648 197.823 35.648C196.991 35.648 196.271 35.792 195.663 36.08C195.055 36.368 194.751 36.784 194.751 37.328C194.751 37.552 194.847 37.776 195.039 38C195.263 38.224 195.807 38.416 196.671 38.576L201.759 39.632C204.735 40.24 206.815 41.296 207.999 42.8C209.215 44.304 209.823 45.984 209.823 47.84C209.823 49.696 209.311 51.264 208.287 52.544C207.263 53.824 205.839 54.8 204.015 55.472C202.191 56.144 200.079 56.48 197.679 56.48C194.607 56.48 192.047 55.968 189.999 54.944C187.951 53.92 186.527 52.688 185.727 51.248C185.567 50.96 185.487 50.688 185.487 50.432C185.487 50.176 185.599 49.984 185.823 49.856L189.999 47.744C190.415 47.552 190.719 47.472 190.911 47.504C191.135 47.536 191.327 47.648 191.487 47.84C191.871 48.256 192.287 48.688 192.735 49.136C193.215 49.552 193.839 49.904 194.607 50.192C195.407 50.48 196.447 50.608 197.727 50.576C198.399 50.544 199.007 50.48 199.551 50.384C200.095 50.256 200.527 50.064 200.847 49.808C201.167 49.552 201.327 49.232 201.327 48.848C201.327 48.528 201.183 48.24 200.895 47.984C200.639 47.728 200.047 47.52 199.119 47.36L194.223 46.496C191.791 46.048 189.887 45.216 188.511 44C187.135 42.752 186.431 41.04 186.399 38.864C186.399 37.2 186.831 35.712 187.695 34.4C188.591 33.056 189.903 32 191.631 31.232C193.359 30.464 195.455 30.08 197.919 30.08C200.543 30.08 202.767 30.56 204.591 31.52C206.447 32.448 207.727 33.504 208.431 34.688C208.591 34.912 208.719 35.168 208.815 35.456C208.911 35.744 208.783 35.968 208.431 36.128L204.015 38.24C203.727 38.368 203.471 38.4 203.247 38.336C203.023 38.24 202.815 38.08 202.623 37.856ZM221.584 45.824C221.584 46.784 221.792 47.584 222.208 48.224C222.656 48.864 223.248 49.344 223.984 49.664C224.752 49.984 225.6 50.144 226.528 50.144C227.36 50.144 228.176 49.952 228.976 49.568C229.776 49.184 230.704 48.48 231.76 47.456C231.888 47.328 232 47.264 232.096 47.264C232.224 47.232 232.448 47.28 232.768 47.408L237.135 49.184C237.712 49.408 237.776 49.792 237.328 50.336C236.176 51.936 235.008 53.184 233.824 54.08C232.672 54.976 231.392 55.6 229.984 55.952C228.608 56.304 227.024 56.48 225.232 56.48C222.672 56.48 220.368 55.936 218.32 54.848C216.272 53.76 214.656 52.256 213.472 50.336C212.288 48.416 211.696 46.208 211.696 43.712C211.696 40.992 212.304 38.608 213.52 36.56C214.768 34.512 216.4 32.928 218.416 31.808C220.464 30.656 222.672 30.08 225.04 30.08C227.568 30.08 229.808 30.624 231.76 31.712C233.712 32.8 235.248 34.368 236.368 36.416C237.52 38.432 238.096 40.896 238.096 43.808C238.096 44.224 238.048 44.528 237.952 44.72C237.888 44.88 237.648 44.976 237.232 45.008H222.304C222.08 45.008 221.904 45.072 221.776 45.2C221.648 45.328 221.584 45.536 221.584 45.824ZM227.968 40.064C228.288 40.064 228.496 40.032 228.592 39.968C228.72 39.872 228.784 39.68 228.784 39.392C228.784 38.976 228.672 38.48 228.448 37.904C228.224 37.328 227.872 36.816 227.392 36.368C226.912 35.92 226.272 35.696 225.472 35.696C224.832 35.696 224.208 35.856 223.6 36.176C223.024 36.464 222.56 36.928 222.208 37.568C221.888 38.208 221.728 39.024 221.728 40.016L227.968 40.064Z" fill="#11B6DF"/>
</svg>
