<svg width="146" height="37" viewBox="0 0 146 37" fill="none" xmlns="http://www.w3.org/2000/svg">
<path d="M55.632 34.4412H52.932L51.168 27.6012H53.472L54.384 32.6292H54.444L55.416 27.6012H57.672L58.668 32.6292H58.704L59.628 27.6012H61.836L60.072 34.4412H57.384L56.568 30.0732H56.496L55.632 34.4412ZM62.5439 27.6012H67.5239V29.0412H64.7039V30.2892H67.0799V31.5852H64.7039V32.9772H67.5119V34.4412H62.5439V27.6012ZM72.8798 30.8292C73.4238 30.8932 73.8118 31.0772 74.0438 31.3812C74.2758 31.6772 74.3918 32.0372 74.3918 32.4612C74.3918 32.7252 74.3518 32.9772 74.2718 33.2172C74.1918 33.4492 74.0958 33.6492 73.9838 33.8172C73.8718 33.9772 73.7758 34.0812 73.6958 34.1292C73.3758 34.3372 72.3998 34.4412 70.7678 34.4412H68.4398V27.6012H71.2598C71.8998 27.6012 72.4158 27.6372 72.8078 27.7092C73.2078 27.7732 73.5318 27.9252 73.7798 28.1652C74.0278 28.3972 74.1518 28.7532 74.1518 29.2332C74.1518 29.6492 74.0478 29.9852 73.8398 30.2412C73.6398 30.4972 73.3198 30.6732 72.8798 30.7692V30.8292ZM71.9198 29.0532C71.8398 28.9732 71.7438 28.9252 71.6318 28.9092C71.5278 28.8852 71.3598 28.8732 71.1278 28.8732C70.8958 28.8732 70.7198 28.8772 70.5998 28.8852V30.3492H70.7198C70.7598 30.3492 70.9278 30.3492 71.2238 30.3492C71.5198 30.3492 71.7158 30.3292 71.8118 30.2892C71.8838 30.2572 71.9478 30.1732 72.0038 30.0372C72.0678 29.9012 72.0998 29.7532 72.0998 29.5932C72.0998 29.3532 72.0398 29.1732 71.9198 29.0532ZM72.1238 33.0612C72.1798 33.0132 72.2238 32.9252 72.2558 32.7972C72.2958 32.6612 72.3158 32.5252 72.3158 32.3892C72.3158 32.2212 72.2918 32.0652 72.2438 31.9212C72.2038 31.7692 72.1478 31.6612 72.0758 31.5972C72.0038 31.5252 71.8998 31.4772 71.7638 31.4532C71.6358 31.4292 71.4158 31.4172 71.1038 31.4172C70.9038 31.4172 70.7358 31.4212 70.5998 31.4292V33.1692C70.9758 33.1772 71.3118 33.1732 71.6078 33.1572C71.9038 33.1332 72.0758 33.1012 72.1238 33.0612ZM82.488 27.1572V34.4412H80.796L80.628 33.5172C80.468 33.8292 80.232 34.0772 79.92 34.2612C79.608 34.4452 79.256 34.5372 78.864 34.5372C78.24 34.5372 77.74 34.3132 77.364 33.8652C76.996 33.4172 76.812 32.7452 76.812 31.8492C76.812 31.1692 76.892 30.6092 77.052 30.1692C77.212 29.7292 77.4 29.4132 77.616 29.2212C77.752 29.1012 78.028 29.0012 78.444 28.9212C78.868 28.8412 79.244 28.8012 79.572 28.8012C79.86 28.8012 80.156 28.8292 80.46 28.8852C80.436 28.5012 80.424 28.2892 80.424 28.2492V27.2412L82.488 27.1572ZM79.764 32.9292C79.98 32.9292 80.204 32.8932 80.436 32.8212V30.2172C80.204 30.1852 79.948 30.1692 79.668 30.1692C79.428 30.1692 79.276 30.1892 79.212 30.2292C79.124 30.2932 79.052 30.4772 78.996 30.7812C78.948 31.0772 78.924 31.3892 78.924 31.7172C78.924 32.2052 78.996 32.5292 79.14 32.6892C79.292 32.8492 79.5 32.9292 79.764 32.9292ZM86.8205 33.0012C87.0205 33.0012 87.3925 32.9812 87.9365 32.9412C88.0085 32.9412 88.1405 32.9332 88.3325 32.9172L88.5125 34.1532C87.8965 34.4412 87.0965 34.5852 86.1125 34.5852C85.1925 34.5852 84.4845 34.3532 83.9885 33.8892C83.5005 33.4252 83.2565 32.7252 83.2565 31.7892C83.2565 31.3092 83.3165 30.8452 83.4365 30.3972C83.5645 29.9492 83.7085 29.6372 83.8685 29.4612C84.0365 29.2852 84.3485 29.1332 84.8045 29.0052C85.2605 28.8772 85.7125 28.8132 86.1605 28.8132C86.8805 28.8132 87.4205 28.9412 87.7805 29.1972C88.1405 29.4532 88.3765 29.8092 88.4885 30.2652C88.6005 30.7132 88.6565 31.3172 88.6565 32.0772C88.1125 32.1092 87.5805 32.1252 87.0605 32.1252H85.3565C85.3565 32.3812 85.4085 32.5732 85.5125 32.7012C85.6245 32.8292 85.7805 32.9132 85.9805 32.9532C86.1805 32.9852 86.4605 33.0012 86.8205 33.0012ZM85.4765 30.2412C85.4285 30.2652 85.3925 30.3692 85.3685 30.5532C85.3445 30.7372 85.3285 30.9452 85.3205 31.1772H85.9445C86.3205 31.1772 86.5925 31.1732 86.7605 31.1652C86.7605 30.7812 86.7045 30.5092 86.5925 30.3492C86.4885 30.1892 86.3045 30.1092 86.0405 30.1092C85.8245 30.1092 85.6365 30.1532 85.4765 30.2412ZM92.9307 28.9212H95.0787L93.3987 34.4412H90.5547L88.8747 28.9212H91.0227L91.9227 33.1572H92.0427L92.9307 28.9212ZM98.9025 33.0012C99.1025 33.0012 99.4745 32.9812 100.019 32.9412C100.091 32.9412 100.223 32.9332 100.415 32.9172L100.595 34.1532C99.9785 34.4412 99.1785 34.5852 98.1945 34.5852C97.2745 34.5852 96.5665 34.3532 96.0705 33.8892C95.5825 33.4252 95.3385 32.7252 95.3385 31.7892C95.3385 31.3092 95.3985 30.8452 95.5185 30.3972C95.6465 29.9492 95.7905 29.6372 95.9505 29.4612C96.1185 29.2852 96.4305 29.1332 96.8865 29.0052C97.3425 28.8772 97.7945 28.8132 98.2425 28.8132C98.9625 28.8132 99.5025 28.9412 99.8625 29.1972C100.223 29.4532 100.459 29.8092 100.571 30.2652C100.683 30.7132 100.739 31.3172 100.739 32.0772C100.195 32.1092 99.6625 32.1252 99.1425 32.1252H97.4385C97.4385 32.3812 97.4905 32.5732 97.5945 32.7012C97.7065 32.8292 97.8625 32.9132 98.0625 32.9532C98.2625 32.9852 98.5425 33.0012 98.9025 33.0012ZM97.5585 30.2412C97.5105 30.2652 97.4745 30.3692 97.4505 30.5532C97.4265 30.7372 97.4105 30.9452 97.4025 31.1772H98.0265C98.4025 31.1772 98.6745 31.1732 98.8425 31.1652C98.8425 30.7812 98.7865 30.5092 98.6745 30.3492C98.5705 30.1892 98.3865 30.1092 98.1225 30.1092C97.9065 30.1092 97.7185 30.1532 97.5585 30.2412ZM101.497 27.2412L103.549 27.1572V34.4412H101.497V27.2412ZM107.23 34.5972C106.27 34.5972 105.55 34.3732 105.07 33.9252C104.598 33.4692 104.362 32.7532 104.362 31.7772C104.362 31.2412 104.41 30.7732 104.506 30.3732C104.61 29.9652 104.734 29.6812 104.878 29.5212C105.062 29.3132 105.398 29.1412 105.886 29.0052C106.382 28.8692 106.846 28.8012 107.278 28.8012C108.31 28.8012 109.046 29.0212 109.486 29.4612C109.926 29.9012 110.146 30.6052 110.146 31.5732C110.146 32.6132 109.91 33.3772 109.438 33.8652C108.966 34.3532 108.23 34.5972 107.23 34.5972ZM107.266 33.1932C107.578 33.1932 107.782 33.0852 107.878 32.8692C107.974 32.6452 108.022 32.2532 108.022 31.6932C108.022 31.3012 108.002 31.0012 107.962 30.7932C107.922 30.5772 107.846 30.4212 107.734 30.3252C107.63 30.2212 107.466 30.1692 107.242 30.1692C106.922 30.1692 106.738 30.1972 106.69 30.2532C106.626 30.3092 106.574 30.4852 106.534 30.7812C106.494 31.0772 106.474 31.3852 106.474 31.7052C106.474 32.2492 106.526 32.6332 106.63 32.8572C106.742 33.0812 106.954 33.1932 107.266 33.1932ZM114.722 28.8012C115.298 28.8012 115.754 28.9932 116.09 29.3772C116.434 29.7532 116.605 30.4132 116.605 31.3572C116.605 32.0612 116.538 32.6372 116.402 33.0852C116.266 33.5252 116.11 33.8172 115.934 33.9612C115.758 34.1052 115.45 34.2212 115.01 34.3092C114.578 34.3972 114.13 34.4412 113.666 34.4412C113.53 34.4412 113.302 34.4332 112.982 34.4172V36.1212L110.93 36.2052V28.9212H112.61L112.814 29.7732C113.022 29.4772 113.286 29.2412 113.605 29.0652C113.934 28.8892 114.306 28.8012 114.722 28.8012ZM114.242 32.9772C114.33 32.9132 114.394 32.7332 114.434 32.4372C114.474 32.1332 114.494 31.8452 114.494 31.5732C114.494 31.1252 114.438 30.7932 114.326 30.5772C114.214 30.3612 113.99 30.2532 113.654 30.2532C113.414 30.2532 113.19 30.2772 112.982 30.3252V32.9892L113.318 33.0252C113.422 33.0332 113.57 33.0372 113.762 33.0372C114.034 33.0372 114.194 33.0172 114.242 32.9772ZM126.038 29.3052C126.166 29.4972 126.23 30.2412 126.23 31.5372V34.4412H124.178V31.7412V31.0932C124.178 30.7972 124.15 30.6212 124.094 30.5652C124.03 30.5012 123.894 30.4692 123.686 30.4692L123.542 30.4812C123.294 30.4972 123.058 30.5532 122.834 30.6492C122.842 30.8172 122.846 31.1132 122.846 31.5372V34.4412H120.794V31.7412V31.0212C120.794 30.7732 120.766 30.6212 120.71 30.5652C120.646 30.5012 120.51 30.4692 120.302 30.4692L120.158 30.4812C119.934 30.4892 119.702 30.5412 119.462 30.6372V34.4412H117.41V28.9212H119.078L119.294 29.8212C119.558 29.4692 119.862 29.2132 120.206 29.0532C120.55 28.8852 120.898 28.8012 121.25 28.8012C121.546 28.8012 121.826 28.8452 122.09 28.9332C122.362 29.0212 122.55 29.1452 122.654 29.3052C122.702 29.3772 122.742 29.5092 122.774 29.7012C123.03 29.3892 123.322 29.1612 123.65 29.0172C123.978 28.8732 124.306 28.8012 124.634 28.8012C124.93 28.8012 125.21 28.8452 125.474 28.9332C125.746 29.0212 125.934 29.1452 126.038 29.3052ZM130.531 33.0012C130.731 33.0012 131.103 32.9812 131.647 32.9412C131.719 32.9412 131.851 32.9332 132.043 32.9172L132.223 34.1532C131.607 34.4412 130.807 34.5852 129.823 34.5852C128.903 34.5852 128.195 34.3532 127.699 33.8892C127.211 33.4252 126.967 32.7252 126.967 31.7892C126.967 31.3092 127.027 30.8452 127.147 30.3972C127.275 29.9492 127.419 29.6372 127.579 29.4612C127.747 29.2852 128.059 29.1332 128.515 29.0052C128.971 28.8772 129.423 28.8132 129.871 28.8132C130.591 28.8132 131.131 28.9412 131.491 29.1972C131.851 29.4532 132.087 29.8092 132.199 30.2652C132.311 30.7132 132.367 31.3172 132.367 32.0772C131.823 32.1092 131.291 32.1252 130.771 32.1252H129.067C129.067 32.3812 129.119 32.5732 129.223 32.7012C129.335 32.8292 129.491 32.9132 129.691 32.9532C129.891 32.9852 130.171 33.0012 130.531 33.0012ZM129.187 30.2412C129.139 30.2652 129.103 30.3692 129.079 30.5532C129.055 30.7372 129.039 30.9452 129.031 31.1772H129.655C130.031 31.1772 130.303 31.1732 130.471 31.1652C130.471 30.7812 130.415 30.5092 130.303 30.3492C130.199 30.1892 130.015 30.1092 129.751 30.1092C129.535 30.1092 129.347 30.1532 129.187 30.2412ZM138.43 29.2692C138.502 29.3572 138.554 29.5772 138.586 29.9292C138.626 30.2812 138.646 30.8172 138.646 31.5372V34.4412H136.594V31.5612V31.0692C136.594 30.8132 136.574 30.6532 136.534 30.5892C136.47 30.5092 136.322 30.4692 136.09 30.4692C135.978 30.4692 135.894 30.4732 135.838 30.4812C135.614 30.4892 135.382 30.5412 135.142 30.6372V34.4412H133.09V28.9212H134.758L134.986 29.8452C135.562 29.1492 136.25 28.8012 137.05 28.8012C137.338 28.8012 137.606 28.8412 137.854 28.9212C138.11 29.0012 138.302 29.1172 138.43 29.2692ZM142.138 32.1732C142.138 32.3172 142.142 32.4692 142.15 32.6292C142.158 32.7812 142.182 32.8772 142.222 32.9172C142.278 32.9732 142.474 33.0012 142.81 33.0012L143.218 32.9892C143.29 33.3732 143.326 33.8172 143.326 34.3212C143.174 34.3772 142.95 34.4292 142.654 34.4772C142.366 34.5252 142.09 34.5492 141.826 34.5492C141.274 34.5492 140.846 34.4292 140.542 34.1892C140.246 33.9412 140.098 33.5612 140.098 33.0492V30.0972H139.198V29.0052L140.098 28.9212L140.638 27.6012L142.138 27.5172V28.9212H143.41V30.0972H142.138V32.1732Z" fill="#AAAAAA"/>
<path d="M27.32 23.4412V6.92916H32.312L36.44 14.9452L40.472 6.92916H45.464V23.4412H40.472V14.8012L37.424 20.5612H35.384L32.312 14.8012V23.4412H27.32ZM56.2451 23.8252C54.5011 23.8252 52.9651 23.4572 51.6371 22.7212C50.3091 21.9852 49.2691 20.9692 48.5171 19.6732C47.7811 18.3772 47.4131 16.8892 47.4131 15.2092C47.4131 13.5132 47.7811 12.0172 48.5171 10.7212C49.2691 9.42516 50.3091 8.40916 51.6371 7.67316C52.9651 6.93716 54.5011 6.56916 56.2451 6.56916C57.9891 6.56916 59.5251 6.93716 60.8531 7.67316C62.1811 8.39316 63.2131 9.40116 63.9491 10.6972C64.7011 11.9932 65.0771 13.4972 65.0771 15.2092C65.0771 16.8892 64.7011 18.3772 63.9491 19.6732C63.2131 20.9692 62.1811 21.9852 60.8531 22.7212C59.5251 23.4572 57.9891 23.8252 56.2451 23.8252ZM56.2451 19.4572C57.2531 19.4572 58.0771 19.0652 58.7171 18.2812C59.3731 17.4972 59.7011 16.4652 59.7011 15.1852C59.7011 14.3212 59.5491 13.5612 59.2451 12.9052C58.9571 12.2492 58.5491 11.7372 58.0211 11.3692C57.5091 10.9852 56.9091 10.7932 56.2211 10.7932C55.2131 10.7932 54.3891 11.2012 53.7491 12.0172C53.1091 12.8172 52.7891 13.8732 52.7891 15.1852C52.7891 16.4652 53.1091 17.4972 53.7491 18.2812C54.3891 19.0652 55.2211 19.4572 56.2451 19.4572ZM70.1767 23.4412L65.2807 6.92916H70.9447L73.4887 17.2252L76.0327 6.92916H81.4567L76.2967 23.4412H70.1767ZM82.6325 23.4412V6.92916H94.2245V10.5772H88.4645V13.5052H93.7205V16.5292H88.4645V19.6732H94.2245V23.4412H82.6325ZM104.286 23.8252C102.558 23.8252 101.046 23.4812 99.7503 22.7932C98.4703 22.0892 97.4703 21.1052 96.7503 19.8412C96.0463 18.5772 95.6943 17.1052 95.6943 15.4252C95.6943 13.6972 96.0623 12.1692 96.7983 10.8412C97.5503 9.51316 98.5743 8.47316 99.8703 7.72116C101.182 6.95316 102.686 6.56916 104.382 6.56916C106.27 6.56916 107.75 6.93716 108.822 7.67316L108.174 11.4892C107.71 11.2652 107.222 11.1052 106.71 11.0092C106.214 10.8972 105.742 10.8412 105.294 10.8412C103.982 10.8412 102.95 11.2332 102.198 12.0172C101.446 12.8012 101.07 13.8892 101.07 15.2812C101.07 16.5932 101.43 17.6252 102.15 18.3772C102.886 19.1132 103.902 19.4812 105.198 19.4812C105.71 19.4812 106.174 19.4332 106.59 19.3372C107.022 19.2412 107.55 19.0652 108.174 18.8092L108.846 22.6012C107.454 23.4172 105.934 23.8252 104.286 23.8252ZM118.026 23.8252C116.282 23.8252 114.746 23.4572 113.418 22.7212C112.09 21.9852 111.05 20.9692 110.298 19.6732C109.562 18.3772 109.194 16.8892 109.194 15.2092C109.194 13.5132 109.562 12.0172 110.298 10.7212C111.05 9.42516 112.09 8.40916 113.418 7.67316C114.746 6.93716 116.282 6.56916 118.026 6.56916C119.77 6.56916 121.306 6.93716 122.634 7.67316C123.962 8.39316 124.994 9.40116 125.73 10.6972C126.482 11.9932 126.858 13.4972 126.858 15.2092C126.858 16.8892 126.482 18.3772 125.73 19.6732C124.994 20.9692 123.962 21.9852 122.634 22.7212C121.306 23.4572 119.77 23.8252 118.026 23.8252ZM118.026 19.4572C119.034 19.4572 119.858 19.0652 120.498 18.2812C121.154 17.4972 121.482 16.4652 121.482 15.1852C121.482 14.3212 121.33 13.5612 121.026 12.9052C120.738 12.2492 120.33 11.7372 119.802 11.3692C119.29 10.9852 118.69 10.7932 118.002 10.7932C116.994 10.7932 116.17 11.2012 115.53 12.0172C114.89 12.8172 114.57 13.8732 114.57 15.1852C114.57 16.4652 114.89 17.4972 115.53 18.2812C116.17 19.0652 117.002 19.4572 118.026 19.4572ZM128.804 23.4412V6.92916H134.54C136.94 6.92916 138.892 7.27316 140.396 7.96116C141.916 8.64916 143.028 9.60116 143.732 10.8172C144.452 12.0332 144.812 13.4492 144.812 15.0652C144.812 17.7052 143.94 19.7612 142.196 21.2332C140.468 22.7052 137.836 23.4412 134.3 23.4412H128.804ZM134.108 19.2412H135.644C136.924 19.2412 137.876 18.8572 138.5 18.0892C139.124 17.3052 139.436 16.2812 139.436 15.0172C139.436 13.8492 139.132 12.9132 138.524 12.2092C137.932 11.4892 136.972 11.1292 135.644 11.1292H134.108V19.2412Z" fill="#AAAAAA"/>
</svg>
